<svg width="765" height="321" viewBox="0 0 765 321" fill="none" xmlns="http://www.w3.org/2000/svg">
<g clip-path="url(#clip0_4_2)">
<path d="M627.068 -88.2916L488.762 -12.7304L624.329 58.5867L624.416 58.5278L627.068 -88.2916Z" fill="#737373"/>
<path d="M417 27L348 65.0696L415.636 101L415.685 100.974L417 27Z" fill="#737373"/>
<path d="M286 105L221 140.495L284.708 174L284.753 173.976L286 105Z" fill="#737373"/>
<path d="M529 101L472 135.47L527.87 168L527.913 167.971L529 101Z" fill="#737373"/>
<path d="M765 22.121L764.771 22L608 107.264L608.011 107.389L761.975 188L765 22.121Z" fill="#0C4A6E"/>
</g>
<defs>
<clipPath id="clip0_4_2">
<rect width="321" height="765" fill="white" transform="matrix(4.37114e-08 1 1 -4.37114e-08 0 0)"/>
</clipPath>
</defs>
</svg>
